<?xml version="1.0" standalone="no"?>
<!DOCTYPE svg PUBLIC "-//W3C//DTD SVG 20010904//EN"
 "http://www.w3.org/TR/2001/REC-SVG-20010904/DTD/svg10.dtd">
<svg version="1.0" xmlns="http://www.w3.org/2000/svg"
 width="100.000000pt" height="100.000000pt" viewBox="0 0 100.000000 100.000000"
 preserveAspectRatio="xMidYMid meet">
<metadata>
Created by potrace 1.11, written by Peter Selinger 2001-2013
</metadata>
<g transform="translate(0.000000,100.000000) scale(0.100000,-0.100000)"
fill="#000000" stroke="none">
<path d="M469 943 c26 -53 27 -118 2 -175 -10 -24 -66 -114 -124 -200 -104
-157 -137 -224 -137 -283 0 -55 30 -123 75 -169 41 -43 138 -106 162 -106 6 0
-4 23 -22 51 -86 127 -74 198 70 418 91 138 109 182 101 245 -7 64 -53 157
-107 216 l-40 45 20 -42z"/>
<path d="M656 618 c9 -43 -11 -88 -101 -222 -46 -69 -87 -141 -90 -160 -8 -38
8 -98 29 -115 11 -9 14 -2 18 33 4 34 20 64 66 128 87 119 116 186 109 253 -3
29 -12 66 -21 82 l-16 28 6 -27z"/>
<path d="M740 462 c0 -68 -16 -106 -96 -222 -57 -84 -66 -103 -71 -155 l-6
-60 55 60 c149 162 173 205 165 301 -3 40 -12 75 -26 96 l-21 33 0 -53z"/>
</g>
</svg>
